<svg width="44" height="65" viewBox="0 0 44 65" fill="none" xmlns="http://www.w3.org/2000/svg">
<path d="M11 64.9999C17.072 64.9999 22 60.1466 22 54.1666V43.3333H11C4.928 43.3333 0 48.1866 0 54.1666C0 60.1466 4.928 64.9999 11 64.9999Z" fill="#0ACF83"/>
<path d="M0 32.5001C0 26.5201 4.928 21.6667 11 21.6667H22V43.3334H11C4.928 43.3334 0 38.4801 0 32.5001Z" fill="#A259FF"/>
<path d="M0 10.8333C0 4.85333 4.928 0 11 0H22V21.6667H11C4.928 21.6667 0 16.8133 0 10.8333Z" fill="#F24E1E"/>
<path d="M22 0H33C39.072 0 44 4.85333 44 10.8333C44 16.8133 39.072 21.6667 33 21.6667H22V0Z" fill="#FF7262"/>
<path d="M44 32.5001C44 38.4801 39.072 43.3334 33 43.3334C26.928 43.3334 22 38.4801 22 32.5001C22 26.5201 26.928 21.6667 33 21.6667C39.072 21.6667 44 26.5201 44 32.5001Z" fill="#1ABCFE"/>
</svg>
